<svg id="Layer_1" data-name="Layer 1" xmlns="http://www.w3.org/2000/svg" viewBox="0 0 69.1 69.1">
    <defs>
        <style>.krasa-1{fill:#f57f32;}.krasa-2{fill:#fff;}</style>
    </defs>
    <title>itf_logo</title>
    <rect class="krasa-1" width="69.1" height="69.1" />
    <path class="krasa-2" d="M22.5,18.3,26,13.1V18l-3.5,5.2ZM26,32.1V27.2l-3.5,5.2v4.9Zm0-11.9-3.5,5.2v4.9L26,25.1ZM22.5,39.9v.9a12.1,12.1,0,0,0,24.2,0V32.4l-3.5,5.2v3.3a8.6,8.6,0,0,1-17.2,0V34.7Zm29.3-2.4v3.3a17.3,17.3,0,1,1-34.6,0V34.7l3.5,5.2v.9a13.8,13.8,0,0,0,27.6,0V32.4Zm-5.2-7.3-3.5,5.2V30.5l3.5-5.2Zm0-19-3.5,5.2v4.9l3.5-5.2Zm0,7-3.5,5.2v4.9l3.5-5.2Zm1.7,12,3.5,5.2V30.5l-3.5-5.2Zm0-7.1,3.5,5.2V23.4l-3.5-5.2Zm0-11.9v4.9l3.5,5.2V16.4ZM20.8,37.3l-3.5-5.2V27.2l3.5,5.2Zm0-7.1L17.3,25V20.1l3.5,5.2Zm3.1-16-2.2,3.3-2.2-3.3,2.2-3.3Zm-3.1,4.1v4.9L17.3,18V13.1ZM37.4,29.1h.8v7.8H36.3V33.5l.4-.8a18.92,18.92,0,0,0,.5-2.3Zm-3-11.9v1.2s-1,.1-1.3.6a1.82,1.82,0,0,0-.4,1.1v2.4H30.2V25a5.53,5.53,0,0,0,.9.1h.2c.1,0,.3.2.4.4s.1,1.5.1,1.5v9.8h-4V35.3h.7c.2-.1.7-.1.8-.3a3.4,3.4,0,0,0,.1-1V21c0-.7.1-2.3-.6-2.5l-1-.2V17.1h6.6Zm6.9,17.9v7.8H30.9V41.4s1.2.1,1.4-.2a4.4,4.4,0,0,0,.2-1.6V26.1c0-.7-.2-1.4-.6-1.5l-1-.2V23.2h6.6v1.2h-.2l-.3.1a1.52,1.52,0,0,0-1.2,1.6V39.4a3.72,3.72,0,0,0,.2,1.8c.5.7,1.5.4,2.1,0,1.6-1,1.9-3.1,2.3-4.8l.2-1.4h.7Z" />
</svg>